<svg width="92" height="24" viewBox="0 0 92 24" fill="none" xmlns="http://www.w3.org/2000/svg">
<mask id="mask0_1_6108" style="mask-type:luminance" maskUnits="userSpaceOnUse" x="0" y="0" width="92" height="24">
<path d="M91.29 0H0V23.95H91.29V0Z" fill="white"/>
</mask>
<g mask="url(#mask0_1_6108)">
<path d="M5.15807 0.80249C5.50242 0.80249 5.84542 0.861577 6.18705 0.979752C6.52731 1.093 6.85397 1.27519 7.16702 1.53123C7.36982 1.70357 7.57806 1.93253 7.79311 2.22058C8.0068 2.51109 8.18782 2.841 8.33754 3.21522C8.4859 3.58944 8.56076 4.00058 8.56076 4.4462C8.56076 4.96567 8.46412 5.39652 8.27221 5.73627C8.08302 6.07848 7.81081 6.24343 7.45557 6.22866C7.59304 5.53931 7.6257 4.88935 7.55356 4.27879C7.48007 3.66822 7.33035 3.13397 7.10169 2.67358C6.87575 2.20827 6.59537 1.84144 6.25782 1.57062C5.92027 1.30227 5.55278 1.16686 5.15807 1.16686C4.64903 1.16686 4.17265 1.38105 3.72622 1.80697C3.27979 2.23535 2.88372 2.82623 2.53937 3.57959C2.19774 4.33541 1.93233 5.21187 1.7445 6.20897C1.55531 7.20114 1.46139 8.25732 1.46139 9.37998C1.46139 10.4386 1.54442 11.4357 1.71183 12.3737C1.88197 13.3142 2.11471 14.1513 2.4087 14.8849C2.70542 15.6137 3.04705 16.2095 3.43223 16.6674C3.88138 17.1869 4.34415 17.4897 4.82053 17.5734C5.29554 17.6522 5.76375 17.5537 6.22516 17.278C6.6852 17.0022 7.1153 16.596 7.51545 16.0568C7.91425 15.5127 8.26268 14.8751 8.56076 14.1463V16.0667C8.12794 16.6772 7.6189 17.1475 7.03091 17.4749C6.44565 17.8048 5.82228 17.9673 5.15807 17.9673C4.50748 17.9673 3.895 17.7482 3.3179 17.3075C2.74353 16.8619 2.23993 16.2489 1.80438 15.466C1.37156 14.6781 1.03129 13.7672 0.780857 12.7283C0.533141 11.6918 0.410645 10.5765 0.410645 9.37998C0.410645 8.19331 0.53178 7.0805 0.775413 6.04155C1.02177 5.00507 1.36067 4.0966 1.7935 3.31369C2.22904 2.52587 2.73264 1.91284 3.30701 1.47214C3.88002 1.02653 4.49659 0.80249 5.15807 0.80249Z" fill="black"/>
<path d="M9.12695 17.9673V0.80249H10.1777V17.6226C10.8596 17.6226 11.4639 17.5734 11.9907 17.4749C12.5201 17.3764 12.9992 17.2484 13.4279 17.0909C13.8594 16.9284 14.2732 16.761 14.6692 16.5886C15.064 16.4114 15.4723 16.239 15.8942 16.0667V17.9673H9.12695Z" fill="black"/>
<path d="M16.2109 17.9673V0.80249H17.2617V17.6226C17.9436 17.6226 18.5479 17.5734 19.0746 17.4749C19.6041 17.3764 20.0832 17.2484 20.5119 17.0909C20.9434 16.9284 21.3572 16.761 21.7532 16.5886C22.1479 16.4114 22.5563 16.239 22.9782 16.0667V17.9673H16.2109Z" fill="black"/>
<path d="M27.498 0.80249L31.7445 17.9673H30.5958L29.0278 11.6745C29.0278 12.4697 28.9571 13.2453 28.8155 13.9986C28.6767 14.7544 28.4725 15.4315 28.2003 16.0273C27.9308 16.6182 27.5987 17.0909 27.204 17.4454C26.8079 17.795 26.352 17.9673 25.8375 17.9673C25.2822 17.9673 24.8044 17.7507 24.4056 17.3174C24.0096 16.884 23.7142 16.2907 23.5182 15.5349C23.3249 14.7741 23.261 13.9149 23.3222 12.9548C23.3617 12.2531 23.4597 11.5711 23.6162 10.9064C23.7714 10.2441 23.9551 9.60155 24.1661 8.97622C24.3757 8.34595 24.588 7.75016 24.8031 7.1839C25.0644 6.48224 25.2958 5.81259 25.4999 5.17494C25.7068 4.53237 25.881 3.85533 26.0226 3.14628C26.1669 2.43724 26.2703 1.65679 26.3329 0.80249H27.498ZM28.7338 10.5026L26.4854 1.42291C26.3901 2.3683 26.2404 3.26446 26.0335 4.11137C25.8266 4.95829 25.5884 5.81013 25.3203 6.66197C25.1352 7.27254 24.9405 7.92742 24.7377 8.62169C24.5336 9.31104 24.3689 10.0201 24.2423 10.7488C24.1144 11.4726 24.0735 12.2014 24.1171 12.9351C24.1606 13.6835 24.2927 14.3433 24.5145 14.9145C24.7391 15.4857 25.0372 15.9042 25.4074 16.1652C25.7776 16.4212 26.2077 16.4754 26.6977 16.3227C27.0094 16.2316 27.3142 15.978 27.6123 15.5644C27.9131 15.1508 28.1704 14.656 28.3854 14.0774C28.6032 13.5013 28.7502 12.9006 28.8264 12.2752C28.9026 11.645 28.8713 11.0541 28.7338 10.5026Z" fill="black"/>
<path d="M37.4139 17.9673C37.0682 17.9673 36.7225 17.9131 36.3741 17.7999C36.0283 17.6817 35.7003 17.4946 35.3886 17.2386C35.1845 17.0687 34.9762 16.8422 34.7625 16.5591C34.5475 16.2784 34.3678 15.946 34.2236 15.5644C34.082 15.1853 34.0112 14.7717 34.0112 14.3236C34.0112 13.8263 34.1038 13.4053 34.2889 13.0631C34.474 12.7159 34.7435 12.5411 35.1001 12.5411C34.9613 13.2576 34.9327 13.9346 35.013 14.5698C35.096 15.2001 35.2553 15.7466 35.4921 16.2045C35.7602 16.724 36.1018 17.0982 36.5156 17.3272C36.9294 17.5586 37.3622 17.6522 37.8168 17.6128C38.2741 17.5734 38.7056 17.4208 39.1125 17.1499C39.5222 16.8742 39.8584 16.5074 40.1197 16.047C40.3988 15.5423 40.5689 15.0179 40.6315 14.4713C40.6968 13.9198 40.671 13.3856 40.5553 12.8661C40.4423 12.3491 40.2572 11.8813 40 11.4677C39.7414 11.0541 39.4365 10.7341 39.0853 10.5026C38.7369 10.2811 38.3531 10.1038 37.9366 9.97085C37.5187 9.84037 37.0995 9.69511 36.6789 9.53754C36.257 9.37505 35.8637 9.14363 35.4975 8.84819C35.13 8.55276 34.8197 8.1293 34.5665 7.57782C34.3052 7.00172 34.1528 6.33699 34.1092 5.58855C34.0698 4.84011 34.1419 4.14584 34.327 3.5008C34.4794 2.95671 34.6918 2.51109 34.964 2.1615C35.2389 1.80697 35.5424 1.53123 35.8732 1.33427C36.2066 1.13239 36.5483 0.994523 36.8967 0.920665C37.2479 0.841882 37.5772 0.80249 37.8821 0.80249C38.2265 0.80249 38.5708 0.861577 38.9165 0.979752C39.265 1.093 39.5944 1.27519 39.9074 1.53123C40.1061 1.70357 40.313 1.93253 40.5281 2.22058C40.7458 2.51109 40.9255 2.841 41.067 3.21522C41.2113 3.58944 41.2848 4.00058 41.2848 4.4462C41.2848 4.96567 41.1923 5.39652 41.0072 5.73627C40.822 6.07848 40.5512 6.24343 40.196 6.22866C40.3225 5.58609 40.3593 4.97552 40.3048 4.39696C40.2504 3.82086 40.1252 3.30877 39.9292 2.86069C39.7182 2.34368 39.431 1.94484 39.069 1.6691C38.7056 1.39336 38.3149 1.23087 37.8985 1.17671C37.4806 1.12501 37.0777 1.1841 36.6898 1.35397C36.4026 1.45984 36.1209 1.64694 35.846 1.9153C35.5737 2.17873 35.3424 2.51602 35.1545 2.92963C34.9653 3.34324 34.8524 3.84056 34.817 4.41666C34.7843 5.06169 34.8605 5.59348 35.0456 6.01201C35.2308 6.43301 35.4771 6.76783 35.7861 7.01649C36.0937 7.26761 36.4081 7.46949 36.7279 7.62706C37.1267 7.79201 37.5527 7.93973 38.0073 8.07021C38.4647 8.20316 38.9084 8.38288 39.3412 8.61184C39.7767 8.83588 40.1538 9.18302 40.4736 9.65572C40.7853 10.1161 41.0208 10.6553 41.1814 11.2708C41.3447 11.8887 41.4209 12.5313 41.41 13.2009C41.4019 13.8657 41.3093 14.5009 41.1324 15.1114C40.9541 15.7171 40.6887 16.2341 40.3375 16.6674C39.9237 17.1672 39.4474 17.5094 38.9111 17.6916C38.3776 17.8762 37.878 17.9673 37.4139 17.9673Z" fill="black"/>
<path d="M40.9927 6.54381C41.3125 6.54381 41.6079 6.40347 41.8801 6.12035C42.1482 5.83968 42.3646 5.46054 42.528 4.98784C42.694 4.51515 42.7784 4.00798 42.7784 3.46143H42.9798V6.54381H44.1939V6.88848H42.9798V15.5152C42.9798 16.0544 43.0452 16.4655 43.1758 16.7462C43.3065 17.0293 43.4698 17.1598 43.6658 17.1401C43.8645 17.1155 44.066 16.9185 44.2701 16.5492L44.4117 16.7954C44.2402 17.1056 44.0306 17.3765 43.7802 17.6128C43.5324 17.8492 43.2874 17.9673 43.0452 17.9673C42.8301 17.9673 42.6505 17.8959 42.5062 17.7507C42.3646 17.6079 42.2476 17.4134 42.1578 17.1696C42.0625 16.8939 42.0012 16.5935 41.9726 16.2636C41.9427 15.9362 41.9291 15.6112 41.9291 15.2887V6.88848H40.9927V6.54381Z" fill="black"/>
<path d="M50.0618 17.9674H49.0165V16.9826C48.6272 17.2731 48.1753 17.5095 47.6608 17.6916C47.145 17.8763 46.6509 17.9674 46.18 17.9674C45.8601 17.9674 45.5539 17.9083 45.2599 17.7901C44.9686 17.667 44.7318 17.4258 44.5467 17.0712C44.3616 16.7118 44.269 16.1628 44.269 15.4266V6.52417H45.3198V15.4266C45.3198 16.1308 45.4096 16.6379 45.592 16.9531C45.773 17.2633 45.9949 17.4553 46.2562 17.5341C46.5352 17.6079 46.8415 17.5809 47.1763 17.4553C47.5138 17.3248 47.8432 17.1303 48.1672 16.8743C48.4938 16.6133 48.7769 16.3277 49.0165 16.0175V6.52417H50.0618V17.9674Z" fill="black"/>
<path d="M55.1771 0.80249H56.2224V17.9673H55.1771V16.3227C54.9117 16.8102 54.6055 17.2066 54.257 17.5143C53.9086 17.8171 53.5397 17.9673 53.1518 17.9673C52.5598 17.9673 52.0603 17.7113 51.6547 17.1992C51.2518 16.6871 50.9469 16.0076 50.74 15.1607C50.5331 14.3138 50.4297 13.3954 50.4297 12.4033C50.4297 11.6548 50.495 10.9335 50.6257 10.2367C50.7563 9.53508 50.9469 8.90482 51.1973 8.34595C51.4505 7.78955 51.7554 7.34639 52.112 7.01649C52.4672 6.68905 52.8687 6.5241 53.3152 6.5241C54.0733 6.5241 54.6939 7.02141 55.1771 8.01113V0.80249ZM55.1771 15.269V9.29135C55.0383 8.71525 54.8409 8.18592 54.5837 7.70584C54.3292 7.22083 54.012 6.9574 53.6309 6.91801C53.2498 6.8737 52.9205 7.01157 52.6455 7.33162C52.3733 7.64675 52.1501 8.08745 51.9759 8.65124C51.8044 9.21749 51.6792 9.82806 51.6002 10.4829C51.5199 11.1403 51.4804 11.7804 51.4804 12.4033C51.4804 12.9104 51.5145 13.4619 51.5839 14.0577C51.656 14.6486 51.7717 15.2148 51.9323 15.7515C52.0956 16.2833 52.3039 16.7142 52.5584 17.0416C52.8157 17.3715 53.126 17.5291 53.4894 17.5143C53.8705 17.4823 54.2026 17.2435 54.4857 16.7954C54.7688 16.3424 54.9988 15.8353 55.1771 15.269Z" fill="black"/>
<path d="M56.5903 6.52409H57.6411V17.9673H56.5903V6.52409ZM57.1239 4.12122C57.2654 4.12122 57.3866 4.21477 57.4886 4.39696C57.5894 4.5816 57.6411 4.80072 57.6411 5.05676C57.6411 5.32019 57.5894 5.54669 57.4886 5.73627C57.3866 5.9283 57.2654 6.02185 57.1239 6.02185C56.9782 6.02185 56.853 5.9283 56.7482 5.73627C56.6421 5.54669 56.5903 5.32019 56.5903 5.05676C56.5903 4.80072 56.6421 4.5816 56.7482 4.39696C56.853 4.21477 56.9782 4.12122 57.1239 4.12122Z" fill="black"/>
<path d="M61.018 6.52417C61.5733 6.52417 62.0769 6.78021 62.5315 7.2923C62.9889 7.80439 63.355 8.49867 63.6313 9.3702C63.9062 10.2368 64.0451 11.197 64.0451 12.2458C64.0451 13.297 63.9062 14.2547 63.6313 15.1214C63.355 15.983 62.9889 16.6724 62.5315 17.1894C62.0769 17.7089 61.5733 17.9674 61.018 17.9674C60.4695 17.9674 59.9645 17.7089 59.5045 17.1894C59.0472 16.6724 58.6824 15.983 58.4102 15.1214C58.1407 14.2547 58.0073 13.297 58.0073 12.2458C58.0073 11.197 58.1407 10.2368 58.4102 9.3702C58.6824 8.49867 59.0472 7.80439 59.5045 7.2923C59.9645 6.78021 60.4695 6.52417 61.018 6.52417ZM61.018 6.88854C60.6655 6.88854 60.3388 7.13228 60.038 7.61728C59.74 8.09737 59.5018 8.73994 59.3248 9.54746C59.1465 10.355 59.0581 11.2561 59.0581 12.2458C59.0581 13.2379 59.1465 14.144 59.3248 14.9638C59.5018 15.7787 59.74 16.4262 60.038 16.9038C60.3388 17.3839 60.6655 17.6227 61.018 17.6227C61.3801 17.6227 61.7108 17.3839 62.0089 16.9038C62.3097 16.4262 62.5492 15.7787 62.7275 14.9638C62.9045 14.144 62.9943 13.2379 62.9943 12.2458C62.9943 11.2561 62.9045 10.355 62.7275 9.54746C62.5492 8.73994 62.3097 8.09737 62.0089 7.61728C61.7108 7.13228 61.3801 6.88854 61.018 6.88854Z" fill="black"/>
<path d="M64.4209 0.80249H69.0159C69.4623 0.80249 69.8815 0.97729 70.2735 1.32443C70.6655 1.66664 70.9826 2.15903 71.2263 2.80161C71.4726 3.43926 71.5965 4.22462 71.5965 5.15525C71.5965 6.21881 71.4277 7.10266 71.0902 7.80432C70.7526 8.50844 70.3348 8.99099 69.838 9.25196C70.2 9.37013 70.5294 9.62617 70.8234 10.0201C71.1174 10.4091 71.3529 10.9015 71.5312 11.4973C71.7081 12.0881 71.7979 12.7726 71.7979 13.5456C71.7979 14.4664 71.6727 15.2567 71.4223 15.919C71.1746 16.5837 70.8479 17.0909 70.4423 17.4454C70.0394 17.795 69.6093 17.9673 69.152 17.9673H64.4209V0.80249ZM68.4932 9.44891H65.4716V17.6029H68.5096C69.2568 17.6029 69.8162 17.2287 70.1864 16.4803C70.5593 15.7318 70.7472 14.7544 70.7472 13.5456C70.7472 12.7381 70.6383 12.0266 70.4205 11.4086C70.2055 10.7931 69.9264 10.3131 69.5821 9.97085C69.2364 9.62371 68.8743 9.44891 68.4932 9.44891ZM65.4716 1.16686V9.11409H68.2918C69.0499 9.11409 69.6148 8.75464 69.985 8.03082C70.3579 7.30208 70.5457 6.34437 70.5457 5.15525C70.5457 4.3428 70.4341 3.63867 70.2136 3.0478C69.9959 2.45201 69.7155 1.98916 69.3752 1.65925C69.0336 1.33181 68.6688 1.16686 68.2809 1.16686H65.4716Z" fill="black"/>
<path d="M75.3637 6.52417C75.919 6.52417 76.4226 6.78021 76.8772 7.2923C77.3346 7.80439 77.7007 8.49867 77.977 9.3702C78.2519 10.2368 78.3908 11.197 78.3908 12.2458C78.3908 13.297 78.2519 14.2547 77.977 15.1214C77.7007 15.983 77.3346 16.6724 76.8772 17.1894C76.4226 17.7089 75.919 17.9674 75.3637 17.9674C74.8152 17.9674 74.3103 17.7089 73.8502 17.1894C73.3929 16.6724 73.0281 15.983 72.7559 15.1214C72.4864 14.2547 72.353 13.297 72.353 12.2458C72.353 11.197 72.4864 10.2368 72.7559 9.3702C73.0281 8.49867 73.3929 7.80439 73.8502 7.2923C74.3103 6.78021 74.8152 6.52417 75.3637 6.52417ZM75.3637 6.88854C75.0112 6.88854 74.6845 7.13228 74.3838 7.61728C74.0857 8.09737 73.8475 8.73994 73.6705 9.54746C73.4922 10.355 73.4038 11.2561 73.4038 12.2458C73.4038 13.2379 73.4922 14.144 73.6705 14.9638C73.8475 15.7787 74.0857 16.4262 74.3838 16.9038C74.6845 17.3839 75.0112 17.6227 75.3637 17.6227C75.7258 17.6227 76.0565 17.3839 76.3546 16.9038C76.6554 16.4262 76.8949 15.7787 77.0732 14.9638C77.2502 14.144 77.34 13.2379 77.34 12.2458C77.34 11.2561 77.2502 10.355 77.0732 9.54746C76.8949 8.73994 76.6554 8.09737 76.3546 7.61728C76.0565 7.13228 75.7258 6.88854 75.3637 6.88854Z" fill="black"/>
<path d="M81.7773 6.52417C82.3326 6.52417 82.8362 6.78021 83.2908 7.2923C83.7481 7.80439 84.1143 8.49867 84.3906 9.3702C84.6655 10.2368 84.8043 11.197 84.8043 12.2458C84.8043 13.297 84.6655 14.2547 84.3906 15.1214C84.1143 15.983 83.7481 16.6724 83.2908 17.1894C82.8362 17.7089 82.3326 17.9674 81.7773 17.9674C81.2288 17.9674 80.7238 17.7089 80.2638 17.1894C79.8065 16.6724 79.4417 15.983 79.1695 15.1214C78.9 14.2547 78.7666 13.297 78.7666 12.2458C78.7666 11.197 78.9 10.2368 79.1695 9.3702C79.4417 8.49867 79.8065 7.80439 80.2638 7.2923C80.7238 6.78021 81.2288 6.52417 81.7773 6.52417ZM81.7773 6.88854C81.4248 6.88854 81.0981 7.13228 80.7973 7.61728C80.4992 8.09737 80.2611 8.73994 80.0841 9.54746C79.9058 10.355 79.8174 11.2561 79.8174 12.2458C79.8174 13.2379 79.9058 14.144 80.0841 14.9638C80.2611 15.7787 80.4992 16.4262 80.7973 16.9038C81.0981 17.3839 81.4248 17.6227 81.7773 17.6227C82.1393 17.6227 82.4701 17.3839 82.7682 16.9038C83.069 16.4262 83.3085 15.7787 83.4868 14.9638C83.6637 14.144 83.7536 13.2379 83.7536 12.2458C83.7536 11.2561 83.6637 10.355 83.4868 9.54746C83.3085 8.73994 83.069 8.09737 82.7682 7.61728C82.4701 7.13228 82.1393 6.88854 81.7773 6.88854Z" fill="black"/>
<mask id="mask1_1_6108" style="mask-type:luminance" maskUnits="userSpaceOnUse" x="85" y="0" width="7" height="19">
<path d="M85.0181 0.630249H91.2205V18.2776H85.0181V0.630249Z" fill="white"/>
</mask>
<g mask="url(#mask1_1_6108)">
<path d="M85.1802 0.80249H86.2309V13.713C86.9128 12.5855 87.5607 11.4062 88.1745 10.1777C88.7911 8.9516 89.375 7.73292 89.9276 6.5241H90.9729L87.8642 11.5564C88.1759 11.453 88.4903 11.512 88.8061 11.7336C89.1218 11.9503 89.3587 12.29 89.5193 12.7479C89.6717 13.1763 89.8024 13.6539 89.9113 14.1857C90.0202 14.7126 90.1263 15.2345 90.2325 15.7515C90.3373 16.271 90.4584 16.7437 90.5973 17.1696C90.6476 17.3223 90.7061 17.4725 90.7715 17.6226C90.8395 17.7753 90.9076 17.8885 90.9729 17.9673H90.0746C89.8242 17.9673 89.6581 17.8664 89.5792 17.662C89.4989 17.4528 89.4118 17.1746 89.3178 16.825C89.2661 16.6083 89.2049 16.303 89.1327 15.9091C89.0592 15.5103 88.9817 15.0819 88.8986 14.6289C88.8142 14.171 88.719 13.7426 88.6101 13.3487C88.5148 13.0089 88.3991 12.7258 88.2616 12.5017C88.1228 12.2728 87.9677 12.1472 87.7934 12.1275C87.6192 12.1029 87.4396 12.2408 87.2545 12.5411L86.2309 14.1956V17.9673H85.1802V0.80249Z" fill="black"/>
</g>
</g>
</svg>
